<svg id="Layer_1" data-name="Layer 1" xmlns="http://www.w3.org/2000/svg" xmlns:xlink="http://www.w3.org/1999/xlink" viewBox="0 0 122 122"><defs><style>.cls-1{fill:url(#linear-gradient);}</style><linearGradient id="linear-gradient" x1="2.75" y1="61" x2="119.25" y2="61" gradientUnits="userSpaceOnUse"><stop offset="0" stop-color="#1ba2b2"/><stop offset="1" stop-color="#0d6fb5"/></linearGradient></defs><path class="cls-1" d="M117.8,77H4.2a1.45,1.45,0,0,0-1.39,1.87l11.58,38.26a1.46,1.46,0,0,0,1.39,1h90.44a1.46,1.46,0,0,0,1.39-1l11.58-38.26A1.44,1.44,0,0,0,117.8,77Zm-12.66,38.26H16.86L6.16,79.86H115.84ZM59.8,4.51,13.85,71.8a1.46,1.46,0,0,0,1.2,2.27H61a1.45,1.45,0,0,0,1.45-1.45V5.33a1.45,1.45,0,0,0-1-1.39A1.48,1.48,0,0,0,59.8,4.51Zm-.25,66.65H17.8L59.55,10Zm7.86-43.69a1.45,1.45,0,0,0-1,1.38V72.62a1.45,1.45,0,0,0,1.45,1.45h34.37a1.45,1.45,0,0,0,1.31-.82,1.46,1.46,0,0,0-.17-1.53L69,28A1.49,1.49,0,0,0,67.41,27.47ZM69.33,33,99.25,71.16H69.33Z"/></svg>