<svg id="Layer_1" data-name="Layer 1" xmlns="http://www.w3.org/2000/svg" xmlns:xlink="http://www.w3.org/1999/xlink" viewBox="0 0 122 122"><defs><style>.cls-1{fill:url(#linear-gradient);}</style><linearGradient id="linear-gradient" x1="2.51" y1="64.2" x2="119.49" y2="64.2" gradientUnits="userSpaceOnUse"><stop offset="0" stop-color="#1ba2b2"/><stop offset="1" stop-color="#0d6fb5"/></linearGradient></defs><path class="cls-1" d="M119.22,42.23h0l0,0a.41.41,0,0,0,0-.09l0-.07a.19.19,0,0,0,0-.09l0-.07,0-.08a.29.29,0,0,1,0-.09s0,0,0-.07,0-.07,0-.1a.2.2,0,0,1,0-.07v-.27s0,0,0-.08,0-.05,0-.07,0-.07,0-.09,0,0,0-.07l0-.1,0-.05,0-.1,0-.06,0-.09,0-.07,0-.06-.06-.08a.21.21,0,0,0,0-.06.46.46,0,0,0-.07-.07l0-.05-.07-.06-.06-.05-.06,0-.08-.06h0L104,30.69h0l-.06,0,0,0-.06,0,0,0,0,0-.09,0h-.07l-.1,0h-.74l-.07,0-.08,0-.08,0,0,0h0l-.07,0-.06,0h0l-26.23,14-15.59-19h0s0,0,0,0l-.07-.08,0-.05-.08-.06-.07-.06h0l0,0-.08,0-.06,0-.08,0-.08,0-.07,0-.09,0h-.09l-.07,0h0L8.19,15.81H7.55l-.09,0-.08,0-.07,0-.08,0-.08,0-.08,0L7,16l-.07,0-.08.06,0,0h0l-.08.07,0,.05-.06.06-.05.06-.06.07,0,.07,0,.07,0,.07,0,.08,0,.07,0,.08,0,.08a.24.24,0,0,1,0,.08.29.29,0,0,1,0,.09v0a.13.13,0,0,0,0,.06s0,.06,0,.09,0,.05,0,.08v.17a.22.22,0,0,1,0,.08s0,.06,0,.09,0,0,0,.08,0,.05,0,.08l0,.08a.24.24,0,0,0,0,.08l0,.08,0,.07a.3.3,0,0,0,0,.08.25.25,0,0,0,0,.07.43.43,0,0,0,0,.07l.06.08,0,0,11,13.69H3.92l-.09,0-.07,0-.09,0-.07,0-.08,0-.07,0-.08,0-.07,0-.06,0-.08.05-.06,0L3,32.74,3,32.8l-.06.06-.06.07a.05.05,0,0,1,0,0l0,0a.41.41,0,0,0,0,.09l0,.06,0,.08,0,.07,0,.08,0,.08s0,0,0,.08a.24.24,0,0,0,0,.08l0,.08s0,.06,0,.09a.17.17,0,0,1,0,.07v.27a.25.25,0,0,1,0,.08s0,.06,0,.08,0,.06,0,.09a.25.25,0,0,1,0,.07l0,.09,0,.07,0,.09,0,.07,0,.07,0,.08,0,.06.06.07,0,.06.07.07,0,0,.06.06.08.06,0,0L42.66,64.06,35.5,110.62v0h0v0s0,.1,0,.15v.06a.34.34,0,0,0,0,.1v.09a.22.22,0,0,1,0,.08.44.44,0,0,0,0,.1s0,0,0,.06l0,.1a.14.14,0,0,0,0,.06l0,.09,0,.07,0,.07a.25.25,0,0,0,0,.07.33.33,0,0,0,0,.06l.06.09,0,0,.06.09s0,0,0,0l.08.07a.12.12,0,0,0,0,0l.07.06.09.06.05,0,.12.07h0l.18.08h0l.13,0,.09,0H37l.24,0h0l.21,0h0a1.76,1.76,0,0,0,.41-.11l0,0,.18-.09,0,0,.15-.1,0,0,.14-.13,0,0,.13-.16h0l.12-.19v0L51.27,86.59,92.82,68.52h0l.1-.05h0l0,0,.08,0,0,0h0l.06,0h0l0,0,0,0,0,0h0l0,0h0l0,0,0,0,0,0,0,0,0,0v0h0l0-.05v0a.43.43,0,0,0,0-.07l0-.06h0l0-.07,0-.07h0s0,0,0-.08h0v0h0L101.49,43H118l.14,0,.06,0,.14,0,0,0,.18-.08h0l.16-.1a.1.1,0,0,0,0,0,.39.39,0,0,0,.1-.08l.06-.05.12-.13h0Zm-19-6.59L91.45,63.4,78.31,47.33ZM12.08,20l44.71,8L44,59.91ZM88.26,64.93,47,61.75,59.68,30ZM51.19,82.88l-4.43-17.7,38.35,2.95Zm-3,2.18-7.64,15.28L44.92,72Zm-13-30.68L9.5,35.7H20.25Zm68.89-19.6,7.7,4.81h-9.21Z"/></svg>