<?xml version="1.0" encoding="iso-8859-1"?>
<!-- Generator: Adobe Illustrator 19.0.0, SVG Export Plug-In . SVG Version: 6.00 Build 0)  -->
<svg xmlns="http://www.w3.org/2000/svg" xmlns:xlink="http://www.w3.org/1999/xlink" version="1.1" id="Layer_1" x="0px" y="0px" viewBox="0 0 512 512" style="enable-background:new 0 0 512 512;" xml:space="preserve" width="512" height="512">
<g>
	<ellipse style="fill:#F36986;" cx="256" cy="256" rx="248.459" ry="248.5"/>
	<path style="fill:#F33759;" d="M409.27,60.406c33.136,42.227,52.897,95.453,52.897,153.296c0,137.243-111.239,248.5-248.459,248.5   c-57.833,0-111.05-19.764-153.271-52.905C105.923,467.26,176.613,504.5,256,504.5c137.22,0,248.46-111.257,248.46-248.5   C504.46,176.6,467.226,105.899,409.27,60.406z"/>
	<g>
		<path style="fill:#FFD2E3;" d="M271.778,297.74h-31.556c-6.25,0-11.316-5.066-11.316-11.316v-142.89    c0-6.25,5.066-11.316,11.316-11.316h31.556c6.25,0,11.316,5.066,11.316,11.316v142.89    C283.094,292.673,278.028,297.74,271.778,297.74z"/>
		<path style="fill:#FFBBD7;" d="M271.779,132.217h-20.448c6.249,0,11.315,5.067,11.315,11.317v142.888    c0,6.25-5.066,11.317-11.315,11.317h20.448c6.249,0,11.315-5.067,11.315-11.317V143.534    C283.094,137.284,278.028,132.217,271.779,132.217z"/>
		<path style="fill:#FFD2E3;" d="M256,387.825L256,387.825c-14.964,0-27.094-12.131-27.094-27.094v-0.009    c0-14.964,12.131-27.094,27.094-27.094h0c14.964,0,27.094,12.131,27.094,27.094v0.009    C283.094,375.694,270.964,387.825,256,387.825z"/>
		<path style="fill:#FFBBD7;" d="M256,333.627L256,333.627c-2.181,0-4.3,0.265-6.332,0.752    c11.908,2.853,20.762,13.563,20.762,26.347v0c0,12.784-8.854,23.494-20.762,26.347c2.032,0.487,4.15,0.752,6.332,0.752l0,0    c14.964,0,27.094-12.133,27.094-27.099v0C283.094,345.76,270.964,333.627,256,333.627z"/>
	</g>
</g>
<g>
	<path d="M436.991,74.981C388.646,26.629,324.37,0,256,0c-4.142,0-7.5,3.358-7.5,7.5s3.358,7.5,7.5,7.5   c64.362,0,124.873,25.068,170.384,70.587c45.511,45.519,70.576,106.04,70.576,170.413s-25.064,124.894-70.576,170.413   C380.873,471.932,320.362,497,256,497s-124.873-25.068-170.384-70.587C40.105,380.894,15.041,320.374,15.041,256   c0-58.77,21.388-115.376,60.223-159.392c38.494-43.629,91.287-71.86,148.653-79.491c4.105-0.546,6.991-4.317,6.445-8.423   s-4.32-6.987-8.423-6.446c-60.951,8.108-117.036,38.095-157.923,84.437C22.761,133.442,0.041,193.573,0.041,256   c0,68.38,26.625,132.667,74.968,181.019C123.354,485.371,187.63,512,256,512s132.646-26.629,180.991-74.981   C485.335,388.667,511.959,324.38,511.959,256S485.335,123.333,436.991,74.981z"/>
	<path d="M283.094,234.677c4.142,0,7.5-3.358,7.5-7.5v-83.642c0-10.376-8.44-18.817-18.815-18.817h-31.559   c-10.375,0-18.815,8.441-18.815,18.817v142.888c0,10.376,8.44,18.817,18.815,18.817h31.559c10.375,0,18.815-8.441,18.815-18.817   v-28.204c0-4.142-3.358-7.5-7.5-7.5s-7.5,3.358-7.5,7.5v28.204c0,2.105-1.711,3.817-3.815,3.817h-31.559   c-2.104,0-3.815-1.712-3.815-3.817V143.535c0-2.105,1.711-3.817,3.815-3.817h31.559c2.104,0,3.815,1.712,3.815,3.817v83.642   C275.594,231.319,278.952,234.677,283.094,234.677z"/>
	<path d="M256,326.127c-19.075,0-34.594,15.519-34.594,34.603c0,19.076,15.519,34.595,34.594,34.595s34.594-15.519,34.594-34.603   C290.594,341.646,275.075,326.127,256,326.127z M256,380.325c-10.804,0-19.594-8.79-19.594-19.603   c0-10.805,8.79-19.595,19.594-19.595s19.594,8.79,19.594,19.603C275.594,371.535,266.804,380.325,256,380.325z"/>
</g>















</svg>
