<svg id="Layer_1" data-name="Layer 1" xmlns="http://www.w3.org/2000/svg" xmlns:xlink="http://www.w3.org/1999/xlink" viewBox="0 0 122 122"><defs><style>.cls-1{fill:url(#linear-gradient);}</style><linearGradient id="linear-gradient" x1="1.68" y1="60.62" x2="119.88" y2="60.62" gradientUnits="userSpaceOnUse"><stop offset="0" stop-color="#1ba2b2"/><stop offset="1" stop-color="#0d6fb5"/></linearGradient></defs><path class="cls-1" d="M118,6.35a13.46,13.46,0,0,0-2.88,1.06A64.57,64.57,0,0,1,104.52,11c-2.24.64-4.47,1.28-6.61,2C91,15.51,84,17.58,77.09,20c-6.71,2.34-13.35,4.9-20.13,7s-13.4,5.21-20.17,7.56c-6.93,2.4-14,4.5-20.87,7C12.52,42.85,9,43.68,5.6,45,4.21,45.6,1.85,46.13,1.69,48c-.14,1.66,1.74,2.88,2.85,3.75,2.78,2.14,5.64,4.19,8.43,6.32a58.22,58.22,0,0,0,8,4.71c2.81,1.5,5.58,3.06,6.31,6.29,1.86,8.2,2.12,16.73,3.11,25,.5,4.24,1.18,8.44,1.55,12.69.19,2.14-.15,6.08,1.61,7.73a1.7,1.7,0,0,0,1.34.42,1,1,0,0,0,1-.25c2.16-2.25,3.94-5,5.86-7.44,2.32-3,4.66-5.92,6.78-9s4.26-6.18,6.59-9.17a24.87,24.87,0,0,0,2.43-3.34c3.87,2.43,7.9,4.69,11.91,6.8,3.2,1.68,7.37,5.78,10.34,1.7,3.54-4.86,5.66-11.09,8.26-16.48C93.3,67,97.85,55.84,102.88,45c2.84-6.14,6.15-12.09,9-18.24,1.4-3,2.73-6,3.95-9.11s3-6.32,3.92-9.63C120.23,6.3,119.19,6.09,118,6.35ZM28.38,64a35.41,35.41,0,0,0-7.24-4.64,71.6,71.6,0,0,1-8.54-5.53l-4-2.94A18.42,18.42,0,0,1,5.3,48.41c1.5-.9,3.92-1.28,5.37-1.72C13.32,45.88,15.9,45,18.5,44c5-1.79,10-3.46,15.06-5.14C43.47,35.59,53.2,31.68,63,28.16,72.45,24.78,82,21.7,91.42,18.48c4.78-1.62,9.46-3.51,14.22-5.15-3.22,2-6.36,4.07-9.6,6-7.1,4.23-14.11,8.8-20.94,13.48C67.4,38.08,59.5,43,52,48.53S36.58,59.37,28.58,64.2Zm6.71,42.57c-.1-1.21-.2-2.41-.35-3.61-.45-3.74-1-7.46-1.41-11.21-.72-7.12-1.45-14.18-2.59-21.26a20.33,20.33,0,0,0-1-4.53c3.79-1.12,7.19-3.65,10.37-5.84,4.11-2.82,8.34-5.48,12.38-8.39,7.63-5.52,15.72-10.34,23.32-15.87a130,130,0,0,1,11.09-7.22c3.43-2,6.52-4.48,10-6.45,1.16-.66,2.28-1.37,3.4-2.1C97.93,22,95.66,24,93.4,25.94c-3.71,3.22-7.68,6.13-11.48,9.26-4.07,3.35-7.92,7-11.87,10.46C63.52,51.42,57.49,57.72,51,63.43c-1.5,1.31-3,2.8-4.41,4.2a38.58,38.58,0,0,0-4.24,4.52C41,73.92,41,75.83,41,77.77c-.26,1.31-.4,2.65-.56,3.66-.55,3.34-1.25,6.65-1.84,10-.66,3.69-1.49,7.3-2.44,10.92C35.76,103.73,35.42,105.14,35.09,106.55ZM52.25,88c-2.23,2.8-4.13,5.79-6.16,8.75s-4.39,5.95-6.61,8.9c-.48.63-1,1.26-1.49,1.89.77-3.21,1.68-6.38,2.4-9.59,1.4-6.22,2.1-12.6,3.57-18.79A9.23,9.23,0,0,1,44.52,77a1.35,1.35,0,0,0,.13-.21.71.71,0,0,0,.15.07c.69.23,1.73,1.43,2.31,1.85,2.12,1.56,4.38,3,6.55,4.44.45.31.92.6,1.37.9C53.94,85.21,53.12,86.93,52.25,88Zm61.43-73.35c-1.16,3.09-2.54,6.07-3.85,9.1-2.44,5.64-5.24,11.3-8.22,16.67-5.4,9.74-9.35,20.4-13.82,30.59-2.44,5.57-5.15,11.15-7.93,16.55a18.07,18.07,0,0,1-1.93,3.6c-1.31,1.49-2.42,1.19-4.07.26-2.38-1.34-4.85-2.53-7.19-3.95-5-3-9.87-6.1-14.74-9.29-2-1.31-3.78-2.87-5.73-4.18a4,4,0,0,0-1.27-.57,5.37,5.37,0,0,1,.35-.45,76.64,76.64,0,0,1,8.77-8.32c2.84-2.38,5.24-5.24,8-7.77,3.47-3.23,6.84-6.51,10.4-9.65s7.32-6.64,11.11-9.82,7.68-6,11.36-9.18c6.25-5.43,12.85-10.54,19-16,.39-.21.77-.43,1.13-.67C114.56,12.61,114.08,13.63,113.68,14.69Z"/></svg>