<?xml version="1.0" encoding="utf-8"?>
<!-- Generator: Adobe Illustrator 24.3.0, SVG Export Plug-In . SVG Version: 6.00 Build 0)  -->
<svg version="1.1" id="Layer_1" xmlns="http://www.w3.org/2000/svg" xmlns:xlink="http://www.w3.org/1999/xlink" x="0px" y="0px"
	 viewBox="0 0 542.8 512" style="enable-background:new 0 0 542.8 512;" xml:space="preserve">
<style type="text/css">
	.st0{fill:url(#SVGID_1_);}
	.st1{fill:#21C1C1;}
	.st2{fill:#F0F4FB;}
</style>
<linearGradient id="SVGID_1_" gradientUnits="userSpaceOnUse" x1="-88.4488" y1="82.3992" x2="683.4335" y2="495.3404">
	<stop  offset="0" style="stop-color:#14A2B1"/>
	<stop  offset="1" style="stop-color:#056DB4"/>
</linearGradient>
<path class="st0" d="M373.4,36.8H74.9C34.1,36.8,1,69.8,1,110.7v198.6c0,40.8,33.1,73.9,73.9,73.9H98v101.7l102.9-101.7h172.5
	c40.8,0,73.9-33.1,73.9-73.9V110.7C447.3,69.8,414.3,36.8,373.4,36.8z"/>
<path class="st1" d="M362.9,327.2c-29.2,45.1-30.3,100.4-7.6,145.1c50.1,2.5,100.1-21.1,129.4-66.2C514,361,515,305.7,492.3,261
	C442.2,258.5,392.2,282,362.9,327.2z"/>
<path class="st2" d="M86.9,73.1c0,3.4,2.1,5.9,5,5.9h13.8v58.9c0,2.9,2.6,4.9,6.1,4.9c3.5,0,6.1-2.1,6.1-4.9V79h13.7
	c2.9,0,5-2.5,5-5.9c0-3.3-2.1-5.7-5-5.7H91.8C88.6,67.3,86.9,70.3,86.9,73.1z"/>
<path class="st2" d="M154.8,67.3c-3.6,0-6.1,2-6.1,4.9v65.7c0,2.9,2.6,5,6.1,5s6.1-2.1,6.1-5v-28.7h22.5v28.7c0,2.9,2.6,5,6.1,5
	c3.6,0,6.1-2.1,6.1-5V72.2c0-2.9-2.5-4.9-6.1-4.9c-3.6,0-6.1,2-6.1,4.9v26.1h-22.5V72.2C160.9,69.3,158.4,67.3,154.8,67.3z"/>
<path class="st2" d="M242.3,71c-0.8-2.5-3.6-4.2-7-4.2c-3.5,0-6.2,1.6-7,4.3l-19.9,65l0,0.1c-0.1,0.3-0.3,0.7-0.3,1.3
	c0,3.6,4.1,5.4,7,5.4c2.5,0,4.3-1.2,5-3.3l3.9-13.1h22.7l3.9,13.1c0.6,2,2.5,3.3,4.9,3.3c3.4,0,7.1-2.3,7.1-5.5
	c0-0.3-0.1-0.6-0.1-0.7v-0.3L242.3,71z M243.4,115.6h-16.5l8.3-27.7L243.4,115.6z"/>
<path class="st2" d="M281,142.9c3.6,0,6.1-2.1,6.1-5V96.2l21.6,41.8l0,0c1.7,3.1,4.1,4.8,7,4.8c3.5,0,6.1-2.1,6.1-5V72.2
	c0-2.9-2.5-4.9-6.1-4.9c-3.6,0-6.1,2-6.1,4.9v41.6l-20.5-40.2c-1.6-3-3.6-6.3-8.1-6.3c-3.7,0-6.1,1.9-6.1,4.9v65.7
	C274.9,140.8,277.5,142.9,281,142.9z"/>
<path class="st2" d="M345.7,67.3c-3.6,0-6.1,2-6.1,4.9v65.7c0,2.9,2.6,5,6.1,5c3.5,0,6.1-2.1,6.1-5V117l5.1-6.4l19.9,29.9
	c1.1,1.7,2.8,2.6,4.7,2.6c3.6,0,6.8-2.9,6.8-6.1c0-0.8-0.3-1.6-0.8-2.6l-22.5-34l19-23.8c0.7-0.9,1.2-2,1.2-3.1
	c0-3.4-3.7-6.2-6.7-6.2c-1.6,0-3.1,0.8-4,2l-22.6,29.3V72.2C351.8,69.3,349.3,67.3,345.7,67.3z"/>
<path class="st2" d="M147.9,192.6l20.3,37.9l0.1,0.1v24.7c0,2.9,2.6,5,6.1,5c3.5,0,6.1-2.1,6.1-5v-24.7c0,0,0-0.1,0-0.1l20.2-37.7
	l0.1-0.2c0.5-1.1,0.6-1.9,0.6-2.5c0-3.3-3.6-5.4-6.9-5.4c-3,0-4.3,2.4-4.7,3.2l-15.3,30L159,187.9c-0.8-1.5-2.1-3.2-4.7-3.2
	c-2.8,0-6.9,1.9-6.9,5.4C147.4,190.6,147.5,191.5,147.9,192.6z"/>
<path class="st2" d="M235,184.7c-14.9,0-23,8.3-23,23.3v29.4c0,15.1,8.2,23.3,23,23.3c14.7,0,23.1-8.5,23.1-23.3V208
	C258.1,193.2,249.7,184.7,235,184.7z M245.9,208v29.4c0,8-3.6,11.9-10.9,11.9c-7.3,0-10.8-3.9-10.8-11.9V208c0-8,3.5-11.9,10.8-11.9
	C242.3,196.1,245.9,200,245.9,208z"/>
<path class="st2" d="M274.8,237.4c0,15.1,8.3,23.3,23.3,23.3c14.9,0,23.4-8.5,23.4-23.3v-47.9c0-2.8-2.6-4.9-6.1-4.9
	c-3.7,0-6.1,2-6.1,4.9v47.9c0,8-3.7,11.9-11.2,11.9c-7.5,0-11.1-3.9-11.1-11.9v-47.9c0-2.9-2.5-4.9-6.1-4.9s-6.1,2-6.1,4.9
	L274.8,237.4L274.8,237.4z"/>
<path d="M354.7,354c0-4.2-3.4-7.6-7.6-7.6H239.3c-2,0-3.9,0.8-5.3,2.2l-90,88.9V354c0-4.2-3.4-7.6-7.6-7.6h-23.1
	c-36.6,0-66.3-29.8-66.3-66.3V81.5c0-36.6,29.8-66.3,66.3-66.3h1.1c4.2,0,7.6-3.4,7.6-7.6c0-4.2-3.4-7.6-7.6-7.6h-1.1
	C68.4,0,31.8,36.6,31.8,81.5v198.6c0,44.9,36.6,81.5,81.5,81.5h15.5v94.1c0,3.1,1.8,5.8,4.7,7c0.9,0.4,1.9,0.6,2.9,0.6
	c2,0,3.9-0.8,5.3-2.2l100.7-99.5h104.7C351.3,361.5,354.7,358.1,354.7,354z"/>
<path d="M524.8,253.1c-1.2-2.4-3.7-4-6.4-4.1c-8.4-0.4-16.8-0.1-25.1,0.8V81.5c0-44.9-36.5-81.5-81.5-81.5H146.9
	c-4.2,0-7.6,3.4-7.6,7.6c0,4.2,3.4,7.6,7.6,7.6h264.9c36.6,0,66.3,29.8,66.3,66.3v170.9c-12.4,2.7-24.6,7-36,12.7
	c-24.3,12.1-45,30.7-59.8,53.6S359,368,357.8,395.2c-1.1,24.9,4,49.7,14.6,72.2l-21.3,32.9c-2.3,3.5-1.3,8.2,2.2,10.5
	c1.3,0.8,2.7,1.2,4.1,1.2c2.5,0,4.9-1.2,6.4-3.5l21.3-32.9c1,0,2,0,3,0c20,0,40.1-3.9,58.6-11.5c3.9-1.6,5.7-6,4.1-9.9
	s-6-5.7-9.9-4.1c-14.5,6-30.2,9.4-45.9,10.2l21.8-33.6l38.1-5.9c4.1-0.6,7-4.5,6.3-8.6c-0.6-4.1-4.5-7-8.6-6.3l-24.8,3.8l23.3-36
	l27.4-4.2c4.1-0.6,7-4.5,6.3-8.6c-0.6-4.1-4.5-7-8.6-6.3l-14.1,2.2l29.2-45c2.3-3.5,1.3-8.2-2.2-10.5s-8.2-1.3-10.5,2.2L451.1,346
	l-1.7-11.1c-0.6-4.1-4.5-7-8.6-6.3c-4.1,0.6-7,4.5-6.3,8.6l4.3,27.9L416.7,399l-3.3-21.8c-0.6-4.1-4.5-7-8.6-6.3s-7,4.5-6.3,8.6
	l5.9,38.6l-22.1,34c-16-41-11.4-87.9,12.7-125.2c25.8-39.9,70.9-63.7,118.2-62.9c20.1,42.9,16.7,93.7-9.1,133.6
	c-10.8,16.7-24.7,30.5-41.3,41.1c-3.5,2.3-4.6,6.9-2.3,10.5c2.3,3.5,6.9,4.5,10.5,2.3c18.4-11.8,33.8-27.1,45.8-45.6
	c14.9-22.9,23.3-49.4,24.5-76.5C542.4,303,536.7,276.6,524.8,253.1z"/>
</svg>
